{
  "accessors": [
    {
      "bufferView": 0,
      "componentType": 5126,
      "count": 278,
      "type": "VEC3",
      "max": [
        29.889999389648438,
        28.634389877319336,
        0.30000001192092896
      ],
      "min": [
        0.0,
        0.0,
        0.0
      ]
    },
    {
      "bufferView": 1,
      "componentType": 5126,
      "count": 278,
      "type": "VEC3",
      "max": [
        1.0,
        1.0,
        1.0
      ],
      "min": [
        -1.0,
        -1.0,
        -1.0
      ]
    },
    {
      "bufferView": 2,
      "componentType": 5126,
      "count": 278,
      "type": "VEC4",
      "max": [
        -1.0,
        0.0,
        0.0,
        -1.0
      ],
      "min": [
        -1.0,
        0.0,
        0.0,
        -1.0
      ]
    },
    {
      "bufferView": 3,
      "componentType": 5123,
      "count": 732,
      "type": "SCALAR",
      "max": [
        277.0
      ],
      "min": [
        0.0
      ]
    }
  ],
  "asset": {
    "version": "2.0"
  },
  "buffers": [
    {
      "uri": "prefix_x5_y-1_z6.bin",
      "byteLength": 12584
    }
  ],
  "bufferViews": [
    {
      "buffer": 0,
      "byteLength": 3336
    },
    {
      "buffer": 0,
      "byteOffset": 3336,
      "byteLength": 3336
    },
    {
      "buffer": 0,
      "byteOffset": 6672,
      "byteLength": 4448
    },
    {
      "buffer": 0,
      "byteOffset": 11120,
      "byteLength": 1464
    }
  ],
  "materials": [
    {
      "pbrMetallicRoughness": {
        "baseColorFactor": [
          0.392156869,
          0.392156869,
          0.431372553,
          1.0
        ],
        "metallicFactor": 0.0
      },
      "name": "C_混凝土 - 轻集料混凝土"
    }
  ],
  "meshes": [
    {
      "primitives": [
        {
          "attributes": {
            "POSITION": 0,
            "NORMAL": 1,
            "TANGENT": 2
          },
          "indices": 3,
          "material": 0
        }
      ],
      "name": "楼板:草坪_300:1713938 #175404"
    }
  ],
  "nodes": [
    {
      "children": [
        1
      ],
      "name": "prefix_x5_y-1_z6"
    },
    {
      "children": [
        2
      ],
      "name": "test Objects"
    },
    {
      "mesh": 0,
      "rotation": [
        0.866,
        -0.5,
        0.0,
        0.0
      ],
      "translation": [
        -77.74,
        -0.7599945,
        92.6004639
      ],
      "name": "楼板:草坪_300:1713938 #175404"
    }
  ],
  "scene": 0,
  "scenes": [
    {
      "nodes": [
        0
      ],
      "name": "prefix_x5_y-1_z6"
    }
  ]
}