{
  "accessors": [
    {
      "bufferView": 0,
      "componentType": 5126,
      "count": 24,
      "type": "VEC3",
      "max": [
        0.10000000149011612,
        5.0,
        0.0024999999441206455
      ],
      "min": [
        0.0,
        0.0,
        0.0
      ]
    },
    {
      "bufferView": 1,
      "componentType": 5126,
      "count": 24,
      "type": "VEC3",
      "max": [
        1.0,
        1.0,
        1.0
      ],
      "min": [
        -1.0,
        -1.0,
        -1.0
      ]
    },
    {
      "bufferView": 2,
      "componentType": 5126,
      "count": 24,
      "type": "VEC4",
      "max": [
        -1.0,
        0.0,
        0.0,
        -1.0
      ],
      "min": [
        -1.0,
        0.0,
        0.0,
        -1.0
      ]
    },
    {
      "bufferView": 3,
      "componentType": 5121,
      "count": 36,
      "type": "SCALAR",
      "max": [
        23.0
      ],
      "min": [
        0.0
      ]
    },
    {
      "bufferView": 4,
      "componentType": 5126,
      "count": 24,
      "type": "VEC3",
      "max": [
        0.10000000149011612,
        5.0,
        0.0024999999441206455
      ],
      "min": [
        0.0,
        0.0,
        0.0
      ]
    },
    {
      "bufferView": 5,
      "componentType": 5126,
      "count": 24,
      "type": "VEC3",
      "max": [
        1.0,
        1.0,
        1.0
      ],
      "min": [
        -1.0,
        -1.0,
        -1.0
      ]
    },
    {
      "bufferView": 6,
      "componentType": 5126,
      "count": 24,
      "type": "VEC4",
      "max": [
        -1.0,
        0.0,
        0.0,
        -1.0
      ],
      "min": [
        -1.0,
        0.0,
        0.0,
        -1.0
      ]
    },
    {
      "bufferView": 7,
      "componentType": 5121,
      "count": 36,
      "type": "SCALAR",
      "max": [
        23.0
      ],
      "min": [
        0.0
      ]
    },
    {
      "bufferView": 8,
      "componentType": 5126,
      "count": 24,
      "type": "VEC3",
      "max": [
        0.10000000149011612,
        5.0,
        0.0024999999441206455
      ],
      "min": [
        0.0,
        0.0,
        0.0
      ]
    },
    {
      "bufferView": 9,
      "componentType": 5126,
      "count": 24,
      "type": "VEC3",
      "max": [
        1.0,
        1.0,
        1.0
      ],
      "min": [
        -1.0,
        -1.0,
        -1.0
      ]
    },
    {
      "bufferView": 10,
      "componentType": 5126,
      "count": 24,
      "type": "VEC4",
      "max": [
        -1.0,
        0.0,
        0.0,
        -1.0
      ],
      "min": [
        -1.0,
        0.0,
        0.0,
        -1.0
      ]
    },
    {
      "bufferView": 11,
      "componentType": 5121,
      "count": 36,
      "type": "SCALAR",
      "max": [
        23.0
      ],
      "min": [
        0.0
      ]
    },
    {
      "bufferView": 12,
      "componentType": 5126,
      "count": 292,
      "type": "VEC3",
      "max": [
        9.3547153472900391,
        8.9998044967651367,
        0.30000001192092896
      ],
      "min": [
        0.0,
        0.0,
        0.0
      ]
    },
    {
      "bufferView": 13,
      "componentType": 5126,
      "count": 292,
      "type": "VEC3",
      "max": [
        0.99992227554321289,
        1.0,
        1.0
      ],
      "min": [
        -0.99472147226333618,
        -1.0,
        -1.0
      ]
    },
    {
      "bufferView": 14,
      "componentType": 5126,
      "count": 292,
      "type": "VEC4",
      "max": [
        -1.0,
        0.0,
        0.0,
        -1.0
      ],
      "min": [
        -1.0,
        0.0,
        0.0,
        -1.0
      ]
    },
    {
      "bufferView": 15,
      "componentType": 5123,
      "count": 840,
      "type": "SCALAR",
      "max": [
        291.0
      ],
      "min": [
        0.0
      ]
    },
    {
      "bufferView": 16,
      "componentType": 5126,
      "count": 24,
      "type": "VEC3",
      "max": [
        0.15000000596046448,
        0.014999999664723873,
        0.0099999997764825821
      ],
      "min": [
        0.0,
        0.0,
        0.0
      ]
    },
    {
      "bufferView": 17,
      "componentType": 5126,
      "count": 24,
      "type": "VEC3",
      "max": [
        1.0,
        1.0,
        1.0
      ],
      "min": [
        -1.0,
        -1.0,
        -1.0
      ]
    },
    {
      "bufferView": 18,
      "componentType": 5126,
      "count": 24,
      "type": "VEC4",
      "max": [
        -1.0,
        0.0,
        0.0,
        -1.0
      ],
      "min": [
        -1.0,
        0.0,
        0.0,
        -1.0
      ]
    },
    {
      "bufferView": 19,
      "componentType": 5121,
      "count": 36,
      "type": "SCALAR",
      "max": [
        23.0
      ],
      "min": [
        0.0
      ]
    }
  ],
  "asset": {
    "version": "2.0"
  },
  "buffers": [
    {
      "uri": "prefix_x2_y-1_z6.bin",
      "byteLength": 17344
    }
  ],
  "bufferViews": [
    {
      "buffer": 0,
      "byteLength": 288,
      "target": 34962
    },
    {
      "buffer": 0,
      "byteOffset": 288,
      "byteLength": 288
    },
    {
      "buffer": 0,
      "byteOffset": 576,
      "byteLength": 384
    },
    {
      "buffer": 0,
      "byteOffset": 960,
      "byteLength": 36,
      "target": 34963
    },
    {
      "buffer": 0,
      "byteOffset": 996,
      "byteLength": 288,
      "target": 34962
    },
    {
      "buffer": 0,
      "byteOffset": 1284,
      "byteLength": 288
    },
    {
      "buffer": 0,
      "byteOffset": 1572,
      "byteLength": 384
    },
    {
      "buffer": 0,
      "byteOffset": 1956,
      "byteLength": 36,
      "target": 34963
    },
    {
      "buffer": 0,
      "byteOffset": 1992,
      "byteLength": 288,
      "target": 34962
    },
    {
      "buffer": 0,
      "byteOffset": 2280,
      "byteLength": 288
    },
    {
      "buffer": 0,
      "byteOffset": 2568,
      "byteLength": 384
    },
    {
      "buffer": 0,
      "byteOffset": 2952,
      "byteLength": 36,
      "target": 34963
    },
    {
      "buffer": 0,
      "byteOffset": 2988,
      "byteLength": 3504,
      "target": 34962
    },
    {
      "buffer": 0,
      "byteOffset": 6492,
      "byteLength": 3504
    },
    {
      "buffer": 0,
      "byteOffset": 9996,
      "byteLength": 4672
    },
    {
      "buffer": 0,
      "byteOffset": 14668,
      "byteLength": 1680,
      "target": 34963
    },
    {
      "buffer": 0,
      "byteOffset": 16348,
      "byteLength": 288,
      "target": 34962
    },
    {
      "buffer": 0,
      "byteOffset": 16636,
      "byteLength": 288
    },
    {
      "buffer": 0,
      "byteOffset": 16924,
      "byteLength": 384
    },
    {
      "buffer": 0,
      "byteOffset": 17308,
      "byteLength": 36,
      "target": 34963
    }
  ],
  "materials": [
    {
      "pbrMetallicRoughness": {
        "baseColorFactor": [
          0.980392158,
          0.980392158,
          0.356862754,
          1.0
        ],
        "metallicFactor": 0.0
      },
      "name": "停车带"
    },
    {
      "pbrMetallicRoughness": {
        "baseColorFactor": [
          0.470588237,
          0.470588237,
          0.470588237,
          1.0
        ],
        "metallicFactor": 0.0
      },
      "name": "路缘石"
    },
    {
      "pbrMetallicRoughness": {
        "baseColorFactor": [
          0.98,
          0.92,
          0.74,
          1.0
        ],
        "metallicFactor": 0.0
      },
      "name": "IfcFlowController"
    }
  ],
  "meshes": [
    {
      "primitives": [
        {
          "attributes": {
            "POSITION": 0,
            "NORMAL": 1,
            "TANGENT": 2
          },
          "indices": 3,
          "material": 0
        }
      ],
      "name": "小汽车停车位 2D - 3D:小汽车停车位 2D - 3D:1717446 #181824"
    },
    {
      "primitives": [
        {
          "attributes": {
            "POSITION": 4,
            "NORMAL": 5,
            "TANGENT": 6
          },
          "indices": 7,
          "material": 0
        }
      ],
      "name": "小汽车停车位 2D - 3D:小汽车停车位 2D - 3D:1717378 #181570"
    },
    {
      "primitives": [
        {
          "attributes": {
            "POSITION": 8,
            "NORMAL": 9,
            "TANGENT": 10
          },
          "indices": 11,
          "material": 0
        }
      ],
      "name": "小汽车停车位 2D - 3D:小汽车停车位 2D - 3D:1717395 #181632"
    },
    {
      "primitives": [
        {
          "attributes": {
            "POSITION": 12,
            "NORMAL": 13,
            "TANGENT": 14
          },
          "indices": 15,
          "material": 1
        }
      ],
      "name": "基本墙:路牙石_花岗岩_100:1714502 #176163"
    },
    {
      "primitives": [
        {
          "attributes": {
            "POSITION": 16,
            "NORMAL": 17,
            "TANGENT": 18
          },
          "indices": 19,
          "material": 2
        }
      ],
      "name": "蝶阀:标准:2049512 #2060863"
    }
  ],
  "nodes": [
    {
      "children": [
        1
      ],
      "name": "prefix_x2_y-1_z6"
    },
    {
      "children": [
        2,
        3,
        4,
        5,
        6
      ],
      "name": "test Objects"
    },
    {
      "mesh": 0,
      "rotation": [
        -0.7071068,
        0.0,
        0.0,
        0.7071068
      ],
      "translation": [
        -52.29,
        -0.434989929,
        86.87047
      ],
      "name": "小汽车停车位 2D - 3D:小汽车停车位 2D - 3D:1717446 #181824"
    },
    {
      "mesh": 1,
      "rotation": [
        -0.7071068,
        0.0,
        0.0,
        0.7071068
      ],
      "translation": [
        -62.29,
        -0.434989929,
        86.87047
      ],
      "name": "小汽车停车位 2D - 3D:小汽车停车位 2D - 3D:1717378 #181570"
    },
    {
      "mesh": 2,
      "rotation": [
        -0.7071068,
        0.0,
        0.0,
        0.7071068
      ],
      "translation": [
        -59.79,
        -0.434989929,
        86.87047
      ],
      "name": "小汽车停车位 2D - 3D:小汽车停车位 2D - 3D:1717395 #181632"
    },
    {
      "mesh": 3,
      "rotation": [
        -0.7071068,
        0.0,
        0.0,
        0.7071068
      ],
      "translation": [
        -41.0547142,
        -0.7499924,
        92.60027
      ],
      "name": "基本墙:路牙石_花岗岩_100:1714502 #176163"
    },
    {
      "mesh": 4,
      "rotation": [
        -0.5,
        -0.5,
        -0.5,
        0.5
      ],
      "scale": [
        1.00000024,
        1.00000012,
        1.00000012
      ],
      "translation": [
        -43.32473,
        -2.04499054,
        76.66279
      ],
      "name": "蝶阀:标准:2049512 #2060863"
    }
  ],
  "scene": 0,
  "scenes": [
    {
      "nodes": [
        0
      ],
      "name": "prefix_x2_y-1_z6"
    }
  ]
}