{"buffers":[{"uri":"test.bin","byteLength":14592600}],"asset":{"version":"2.0","generator":"gltfpack 0.15"},"extensionsUsed":["KHR_mesh_quantization"],"extensionsRequired":["KHR_mesh_quantization"],"bufferViews":[{"buffer":0,"byteOffset":0,"byteLength":2385716,"byteStride":4,"target":34962},{"buffer":0,"byteOffset":2385716,"byteLength":4771432,"byteStride":8,"target":34962},{"buffer":0,"byteOffset":7157148,"byteLength":757560,"target":34963},{"buffer":0,"byteOffset":7914708,"byteLength":6677892,"target":34963}],"accessors":[{"bufferView":0,"byteOffset":0,"componentType":5120,"count":11286,"type":"VEC3","normalized":true},{"bufferView":1,"byteOffset":0,"componentType":5123,"count":11286,"type":"VEC3","min":[0,0,0],"max":[16383,9372,10701]},{"bufferView":2,"byteOffset":0,"componentType":5123,"count":24264,"type":"SCALAR"},{"bufferView":0,"byteOffset":45144,"componentType":5120,"count":31020,"type":"VEC3","normalized":true},{"bufferView":1,"byteOffset":90288,"componentType":5123,"count":31020,"type":"VEC3","min":[1790,2069,1487],"max":[13909,7084,8514]},{"bufferView":2,"byteOffset":48528,"componentType":5123,"count":94836,"type":"SCALAR"},{"bufferView":0,"byteOffset":169224,"componentType":5120,"count":10744,"type":"VEC3","normalized":true},{"bufferView":1,"byteOffset":338448,"componentType":5123,"count":10744,"type":"VEC3","min":[1817,1624,1514],"max":[13883,7516,8487]},{"bufferView":2,"byteOffset":238200,"componentType":5123,"count":21840,"type":"SCALAR"},{"bufferView":0,"byteOffset":212200,"componentType":5120,"count":576,"type":"VEC3","normalized":true},{"bufferView":1,"byteOffset":424400,"componentType":5123,"count":576,"type":"VEC3","min":[1822,1737,1519],"max":[13878,7418,8482]},{"bufferView":2,"byteOffset":281880,"componentType":5123,"count":864,"type":"SCALAR"},{"bufferView":0,"byteOffset":214504,"componentType":5120,"count":202844,"type":"VEC3","normalized":true},{"bufferView":1,"byteOffset":429008,"componentType":5123,"count":202844,"type":"VEC3","min":[1814,1652,1511],"max":[13885,7491,8490]},{"bufferView":3,"byteOffset":0,"componentType":5125,"count":817536,"type":"SCALAR"},{"bufferView":0,"byteOffset":1025880,"componentType":5120,"count":1728,"type":"VEC3","normalized":true},{"bufferView":1,"byteOffset":2051760,"componentType":5123,"count":1728,"type":"VEC3","min":[1826,1935,1522],"max":[13874,7220,8479]},{"bufferView":2,"byteOffset":283608,"componentType":5123,"count":2592,"type":"SCALAR"},{"bufferView":0,"byteOffset":1032792,"componentType":5120,"count":2592,"type":"VEC3","normalized":true},{"bufferView":1,"byteOffset":2065584,"componentType":5123,"count":2592,"type":"VEC3","min":[1798,2039,1495],"max":[13902,7543,8507]},{"bufferView":2,"byteOffset":288792,"componentType":5123,"count":3888,"type":"SCALAR"},{"bufferView":0,"byteOffset":1043160,"componentType":5120,"count":6144,"type":"VEC3","normalized":true},{"bufferView":1,"byteOffset":2086320,"componentType":5123,"count":6144,"type":"VEC3","min":[1790,2003,1487],"max":[13909,7579,8514]},{"bufferView":2,"byteOffset":296568,"componentType":5123,"count":12768,"type":"SCALAR"},{"bufferView":0,"byteOffset":1067736,"componentType":5120,"count":4608,"type":"VEC3","normalized":true},{"bufferView":1,"byteOffset":2135472,"componentType":5123,"count":4608,"type":"VEC3","min":[1790,1981,1487],"max":[13909,7601,8514]},{"bufferView":2,"byteOffset":322104,"componentType":5123,"count":9216,"type":"SCALAR"},{"bufferView":0,"byteOffset":1086168,"componentType":5120,"count":2304,"type":"VEC3","normalized":true},{"bufferView":1,"byteOffset":2172336,"componentType":5123,"count":2304,"type":"VEC3","min":[4298,1729,1519],"max":[11401,7492,8482]},{"bufferView":2,"byteOffset":340536,"componentType":5123,"count":3456,"type":"SCALAR"},{"bufferView":0,"byteOffset":1095384,"componentType":5120,"count":3840,"type":"VEC3","normalized":true},{"bufferView":1,"byteOffset":2190768,"componentType":5123,"count":3840,"type":"VEC3","min":[3649,2381,1470],"max":[12037,7508,8531]},{"bufferView":2,"byteOffset":347448,"componentType":5123,"count":5760,"type":"SCALAR"},{"bufferView":0,"byteOffset":1110744,"componentType":5120,"count":65532,"type":"VEC3","normalized":true},{"bufferView":1,"byteOffset":2221488,"componentType":5123,"count":65532,"type":"VEC3","min":[3604,2354,1455],"max":[12082,7535,8546]},{"bufferView":2,"byteOffset":358968,"componentType":5123,"count":195576,"type":"SCALAR"},{"bufferView":0,"byteOffset":1372872,"componentType":5120,"count":768,"type":"VEC3","normalized":true},{"bufferView":1,"byteOffset":2745744,"componentType":5123,"count":768,"type":"VEC3","min":[3615,2366,1501],"max":[12070,7523,8500]},{"bufferView":2,"byteOffset":750120,"componentType":5123,"count":1536,"type":"SCALAR"},{"bufferView":0,"byteOffset":1375944,"componentType":5120,"count":48,"type":"VEC3","normalized":true},{"bufferView":1,"byteOffset":2751888,"componentType":5123,"count":48,"type":"VEC3","min":[1761,74,6662],"max":[14236,1624,6773]},{"bufferView":2,"byteOffset":753192,"componentType":5123,"count":72,"type":"SCALAR"},{"bufferView":0,"byteOffset":1376136,"componentType":5120,"count":864,"type":"VEC3","normalized":true},{"bufferView":1,"byteOffset":2752272,"componentType":5123,"count":864,"type":"VEC3","min":[4067,9298,3986],"max":[15001,9372,9814]},{"bufferView":2,"byteOffset":753336,"componentType":5123,"count":2112,"type":"SCALAR"},{"bufferView":0,"byteOffset":1379592,"componentType":5120,"count":251531,"type":"VEC3","normalized":true},{"bufferView":1,"byteOffset":2759184,"componentType":5123,"count":251531,"type":"VEC3","min":[1199,72,889],"max":[14513,8413,9109]},{"bufferView":3,"byteOffset":3270144,"componentType":5125,"count":851937,"type":"SCALAR"}],"materials":[{"name":"9\"","pbrMetallicRoughness":{"baseColorFactor":[0.909803927,0.909803927,0.909803927,1],"metallicFactor":0}},{"name":"Default Wall","pbrMetallicRoughness":{"baseColorFactor":[0.501960814,0.501960814,0.501960814,1],"metallicFactor":0}},{"name":"Door - Handle","pbrMetallicRoughness":{"baseColorFactor":[0.964705884,0.941176474,0.650980413,1],"metallicFactor":0}},{"name":"Door - Frame/Mullion","pbrMetallicRoughness":{"baseColorFactor":[0.831372559,0.701960802,0.443137258,1],"metallicFactor":0}},{"name":"Door - Glazing","pbrMetallicRoughness":{"baseColorFactor":[0,0,1,0.25],"metallicFactor":0},"alphaMode":"BLEND"},{"name":"Door - Panel","pbrMetallicRoughness":{"baseColorFactor":[0.823529422,0.623529434,0.372549027,1],"metallicFactor":0}},{"name":"Door - Glazing Bars","pbrMetallicRoughness":{"baseColorFactor":[0.619607866,0.419607848,0.254901975,1],"metallicFactor":0}},{"name":"Glass (2)","pbrMetallicRoughness":{"baseColorFactor":[0.968627453,0.968627453,0.968627453,0.100000001],"metallicFactor":0},"alphaMode":"BLEND"},{"name":"Shutter Material","pbrMetallicRoughness":{"baseColorFactor":[0.87843138,0.698039234,0.494117647,1],"metallicFactor":0}},{"name":"Frame Material","pbrMetallicRoughness":{"baseColorFactor":[0.568627477,0.43921569,0.352941185,1],"metallicFactor":0}},{"name":"Glass","pbrMetallicRoughness":{"baseColorFactor":[0,0.501960814,0.752941191,0.25],"metallicFactor":0},"alphaMode":"BLEND"},{"name":"Window Louvres","pbrMetallicRoughness":{"baseColorFactor":[0.552941203,0.713725507,0.921568632,0.0500000007],"metallicFactor":0},"alphaMode":"BLEND"},{"name":"Window Frame","pbrMetallicRoughness":{"baseColorFactor":[0.372549027,0.278431386,0.247058824,1],"metallicFactor":0}},{"name":"Window Liner","pbrMetallicRoughness":{"baseColorFactor":[0.850980401,0.533333361,0.250980407,1],"metallicFactor":0}},{"name":"IfcColumn","pbrMetallicRoughness":{"baseColorFactor":[0,0,0.550000012,1],"metallicFactor":0}},{"name":"IfcBuildingElementProxy","pbrMetallicRoughness":{"baseColorFactor":[0.949999988,0.939999998,0.74000001,1],"metallicFactor":0}}],"meshes":[{"primitives":[{"attributes":{"NORMAL":0,"POSITION":1},"mode":4,"indices":2,"material":0},{"attributes":{"NORMAL":3,"POSITION":4},"mode":4,"indices":5,"material":2},{"attributes":{"NORMAL":6,"POSITION":7},"mode":4,"indices":8,"material":3},{"attributes":{"NORMAL":9,"POSITION":10},"mode":4,"indices":11,"material":4},{"attributes":{"NORMAL":12,"POSITION":13},"mode":4,"indices":14,"material":5},{"attributes":{"NORMAL":15,"POSITION":16},"mode":4,"indices":17,"material":6},{"attributes":{"NORMAL":18,"POSITION":19},"mode":4,"indices":20,"material":7},{"attributes":{"NORMAL":21,"POSITION":22},"mode":4,"indices":23,"material":8},{"attributes":{"NORMAL":24,"POSITION":25},"mode":4,"indices":26,"material":9},{"attributes":{"NORMAL":27,"POSITION":28},"mode":4,"indices":29,"material":10},{"attributes":{"NORMAL":30,"POSITION":31},"mode":4,"indices":32,"material":11},{"attributes":{"NORMAL":33,"POSITION":34},"mode":4,"indices":35,"material":12},{"attributes":{"NORMAL":36,"POSITION":37},"mode":4,"indices":38,"material":13},{"attributes":{"NORMAL":39,"POSITION":40},"mode":4,"indices":41,"material":14},{"attributes":{"NORMAL":42,"POSITION":43},"mode":4,"indices":44,"material":1},{"attributes":{"NORMAL":45,"POSITION":46},"mode":4,"indices":47,"material":15}]}],"nodes":[{"mesh":0,"translation":[-17.4659386,-0.152400002,-10.8649321],"scale":[0.00206511631,0.00206511631,0.00206511631]}],"scenes":[{"nodes":[0]}],"scene":0}